:SAMPLES-PER-SECOND 30
:FULLY-SPECIFIED
:DEGREES
501
root  -60.5151 41.1598 -30.5338 -0.944641 6.16626 1.62219
RightUpLeg  -5.12688 -12.4215 -9.07944
RightLeg  6.55234 -24.8873 3.67097
RightFoot  3.19138 0.291752 -2.11756
RightToes  0.00048216 0.542163 -0.142577
Spine  23.6287 -0.432496 13.8589
Spine1  5.97433 4.36328 -7.85996
HEad  -41.9297 56.6591 -43.0304
LeftShoulder1  9.69359 -14.0917 -48.0933
LeftArm  -6.52559 17.1118 -22.1229
LeftForeArm  18.5442 -21.9502 -3.93456
LeftHand  -0.25398 0.0180481 5.50724
RightShoulder  5.11528 9.89242 32.2423
RightArm  -0.5987 -6.73701 31.6185
RightForeArm  -15.7018 27.4801 6.70874
RightHand  -2.07925 4.50183 -24.398
LeftUpLeg  0.917908 6.13202 5.6741
LeftLeg  5.28261 9.26229 -1.32213
LeftFoot  -3.22986 0.364028 -4.87423
LeftToes  1.06244e-005 4.65854e-005 -8.18505e-006
502
root  -60.0338 41.213 -30.5624 -1.34756 6.27315 2.09903
RightUpLeg  -4.29184 -12.6892 -10.3438
RightLeg  5.84626 -24.3702 3.60075
RightFoot  4.14416 0.214746 -1.36909
RightToes  0.00048216 0.542163 -0.142577
Spine  21.777 -0.18097 12.5776
Spine1  5.83101 4.08914 -7.72512
HEad  -34.7521 55.9609 -35.9894
LeftShoulder1  9.46159 -13.8293 -47.6462
LeftArm  -5.76982 17.3571 -23.0904
LeftForeArm  19.5403 -21.7807 -3.89834
LeftHand  -0.25398 0.0180481 5.50724
RightShoulder  5.09564 9.67474 32.7244
RightArm  -2.96384 -8.22199 31.8813
RightForeArm  -13.7058 28.753 6.92939
RightHand  -1.97397 4.23889 -23.8152
LeftUpLeg  1.80712 5.22906 4.40254
LeftLeg  4.34303 10.3742 -1.75493
LeftFoot  -2.60259 0.257713 -3.162
LeftToes  1.06244e-005 4.65854e-005 -8.18505e-006
503
root  -59.5561 41.2184 -30.6404 -1.82553 6.63629 2.36107
RightUpLeg  -3.58652 -13.0235 -11.4688
RightLeg  5.55028 -24.1942 3.44991
RightFoot  4.74462 0.144588 -0.791481
RightToes  0.00048216 0.542163 -0.142577
Spine  20.1497 0.00937751 11.4648
Spine1  5.6313 3.82112 -7.46359
HEad  -24.9457 52.8757 -26.656
LeftShoulder1  9.23676 -13.633 -47.0351
LeftArm  -4.95972 17.2747 -24.0418
LeftForeArm  20.7796 -21.7989 -3.8505
LeftHand  -0.25398 0.0180481 5.50724
RightShoulder  5.00191 9.41082 32.7884
RightArm  -5.29004 -9.72546 32.7079
RightForeArm  -12.1638 29.6025 7.06903
RightHand  -1.94535 4.20546 -23.5603
LeftUpLeg  2.35044 4.6779 3.35918
LeftLeg  4.14781 10.6218 -1.88932
LeftFoot  -2.49044 0.189727 -2.25558
LeftToes  1.06244e-005 4.65854e-005 -8.18505e-006
504
root  -59.0855 41.2018 -30.7547 -2.56273 6.78917 2.37831
RightUpLeg  -2.73886 -13.3665 -12.424
RightLeg  5.32467 -23.8752 3.47148
RightFoot  5.20178 0.106381 -0.486627
RightToes  0.00048216 0.542163 -0.142577
Spine  18.937 0.225772 10.4592
Spine1  5.57172 3.68334 -7.19678
HEad  -15.8712 47.8892 -18.2314
LeftShoulder1  9.03263 -13.434 -46.5239
LeftArm  -4.54534 17.0786 -24.8383
LeftForeArm  22.0833 -22.4953 -3.79919
LeftHand  -0.25398 0.0180481 5.50724
RightShoulder  4.88759 9.16108 32.651
RightArm  -6.65065 -10.8045 33.6193
RightForeArm  -11.9024 29.9755 7.15136
RightHand  -1.96786 4.27456 -23.6605
LeftUpLeg  3.10387 4.46786 2.73105
LeftLeg  4.11923 10.6505 -2.10493
LeftFoot  -2.88227 0.165217 -1.99975
LeftToes  1.06244e-005 4.65854e-005 -8.18505e-006
505
root  -58.6252 41.1708 -30.9052 -3.42758 6.6212 2.35181
RightUpLeg  -2.07938 -13.7804 -13.373
RightLeg  5.5707 -22.9395 3.47908
RightFoot  5.5914 0.0451899 -0.0480332
RightToes  0.00048216 0.542163 -0.142577
Spine  18.1566 0.471172 9.30245
Spine1  5.60555 3.60834 -6.92983
HEad  -8.53109 40.6332 -11.5328
LeftShoulder1  8.86507 -13.1867 -46.3318
LeftArm  -4.96362 16.8109 -25.2847
LeftForeArm  23.1191 -23.7643 -3.87303
LeftHand  -0.25398 0.0180481 5.50724
RightShoulder  4.86123 9.03443 32.83
RightArm  -6.82793 -11.1184 34.0201
RightForeArm  -12.0724 29.7409 7.10001
RightHand  -1.95018 4.23408 -23.5484
LeftUpLeg  3.85868 4.66886 2.32787
LeftLeg  4.35603 10.6433 -2.49574
LeftFoot  -3.43282 0.126782 -1.53293
LeftToes  1.06244e-005 4.65854e-005 -8.18505e-006
506
root  -58.1852 41.103 -31.0918 -4.07092 6.27576 2.40033
RightUpLeg  -2.16707 -14.665 -14.2675
RightLeg  6.7233 -21.3288 3.0746
RightFoot  5.38288 -0.0885787 0.857647
RightToes  0.00048216 0.542163 -0.142577
Spine  17.5598 0.718677 7.88015
Spine1  5.60671 3.49898 -6.60549
HEad  -3.32787 31.7929 -6.87571
LeftShoulder1  8.70502 -12.9112 -46.2554
LeftArm  -6.29976 16.5773 -25.5902
LeftForeArm  23.7547 -25.1879 -4.13601
LeftHand  -0.25398 0.0180481 5.50724
RightShoulder  4.9298 9.05404 33.3137
RightArm  -6.38703 -10.8694 34.0732
RightForeArm  -11.452 28.9804 6.87755
RightHand  -1.84921 3.98969 -22.9276
LeftUpLeg  4.03103 5.05796 1.89183
LeftLeg  5.22572 10.6615 -2.81222
LeftFoot  -4.12328 0.0779718 -0.841193
LeftToes  1.06244e-005 4.65854e-005 -8.18505e-006
507
root  -57.7875 40.9974 -31.2992 -4.40594 5.88425 2.48396
RightUpLeg  -3.06938 -17.2779 -14.7972
RightLeg  8.77433 -18.3567 1.96011
RightFoot  4.07402 -0.256344 2.10683
RightToes  0.00048216 0.542163 -0.142577
Spine  17.0004 0.93392 6.3056
Spine1  5.53138 3.34204 -6.25908
HEad  0.262579 22.8056 -3.84938
LeftShoulder1  8.52897 -12.6799 -45.958
LeftArm  -7.87579 16.482 -25.9904
LeftForeArm  23.9191 -26.4887 -4.40969
LeftHand  -0.25398 0.0180481 5.50724
RightShoulder  5.01095 9.12221 33.7421
RightArm  -5.9639 -10.5334 34.4143
RightForeArm  -10.1532 28.0273 6.57785
RightHand  -1.74972 3.73503 -22.3197
LeftUpLeg  3.53498 5.21606 1.27559
LeftLeg  6.65687 11.0058 -2.74056
LeftFoot  -5.04263 0.0535251 -0.425012
LeftToes  1.06244e-005 4.65854e-005 -8.18505e-006
508
root  -57.4516 40.9098 -31.4983 -4.68401 5.5455 2.53624
RightUpLeg  -4.36197 -21.609 -14.7169
RightLeg  11.5472 -13.7321 0.279197
RightFoot  2.14171 -0.390547 3.42968
RightToes  0.00048216 0.542163 -0.142577
Spine  16.5439 1.05955 4.80984
Spine1  5.45223 3.15622 -6.05306
HEad  2.79169 15.0282 -1.90705
LeftShoulder1  8.37417 -12.536 -45.5138
LeftArm  -9.07774 16.3469 -26.1608
LeftForeArm  23.8738 -27.4275 -4.61909
LeftHand  -0.25398 0.0180481 5.50724
RightShoulder  5.05276 9.12927 34.0483
RightArm  -5.83421 -10.4196 35.2945
RightForeArm  -9.04046 27.2327 6.33065
RightHand  -1.74005 3.70652 -22.2644
LeftUpLeg  3.04828 5.01102 0.575134
LeftLeg  7.82443 11.7547 -2.39752
LeftFoot  -5.78071 0.0451834 -0.21392
LeftToes  1.06244e-005 4.65854e-005 -8.18505e-006
